<svg xmlns="http://www.w3.org/2000/svg" height="17px" width="80.79px" version="1.1" viewBox="0 0 358.63087 75.466403">
 <g transform="translate(-225.4 -360.81)">
  <!-- <text style="word-spacing:0px;letter-spacing:0px" xml:space="preserve" font-size="40px" y="398.37518" x="31.965019" font-family="sans-serif" line-height="125%" fill="#000000"><tspan x="31.965019" y="398.37518"/></text> -->
  <g fill="#f00">
   <path d="m418.79 360.81h-25.85v74.9h14.7v-33.75l24.75 33.75h17.9l-27.25-36.75c7.65-1.1 12.1-6.45 12.1-14.4 0-8.4-6.1-13.85-15.6-13.85h-16.1v18.7h4.2v-14.5h11.9c6.95 0 11.4 3.35 11.4 9.65 0 5.6-2.65 10.55-11.9 10.55h-4.1l27 36.4h-7.4l-26.75-36.4h-4.35v36.4h-6.3v-66.5h21.65c13.7 0 22.65 7.5 22.65 19.55 0 7.5-2.9 13.35-9.2 17.05l2.45 3.35c7-3.95 10.95-11.3 10.95-20.4 0-13.3-9.6-23.75-26.85-23.75z"/>
   <path d="m477.76 421.61v-28.05h25.6v5.7h-19.3v4.2h23.5v-14.1h-34v36.45h31.65v5.7h-37.95v-66.5h37.25v5.7h-30.95v12.95h4.2v-8.75h30.95v-14.1h-45.65v74.9h46.35v-14.1h-31.65z"/>
   <path d="m550.53 360.81h-23.6v4.2h23.6c20.2 0 29.3 14.25 29.3 33.2 0 20.2-11.75 33.3-30 33.3h-18.7v-56.6h19.4c11.95 0 18.8 8.25 18.8 23.3 0 14.05-7.4 23.4-18.8 23.4h-8.9v-41.05h-4.2v45.25h13.1c13.75 0 23-11.1 23-27.6 0-17.25-8.6-27.5-22.95-27.5h-23.65v65h22.9c20.5 0 34.2-14.95 34.2-37.5 0-24.05-13.35-37.4-33.5-37.4z"/>
  </g>
  <g fill="#555">
   <path d="m235.57 383.72q-2.2461 0-4.1211-0.68359-1.875-0.70313-3.2226-2.1094-1.3477-1.4062-2.0898-3.5352-0.74218-2.1484-0.74218-5.0391 0-2.8711 0.76172-4.9609 0.78125-2.0898 2.0703-3.5156 1.2891-1.4258 3.2031-2.1875 1.9336-0.78125 4.1406-0.78125 1.7969 0 3.457 0.50781 1.6797 0.50781 2.9883 1.1719v4.1211h-0.21484q-0.39063-0.33203-1.0156-0.76172-0.60547-0.42969-1.4844-0.8789-0.76172-0.39063-1.7969-0.6836t-1.9922-0.29297q-2.8516 0-4.5898 2.168-1.7188 2.1484-1.7188 6.0938 0 3.8672 1.6602 6.0352 1.6797 2.1484 4.6484 2.1484 1.7969 0 3.418-0.74219t2.8711-1.9141h0.21484v4.1211q-0.54687 0.25391-1.3672 0.625-0.82031 0.35156-1.4844 0.52734-0.9375 0.27344-1.6797 0.41016-0.74219 0.15625-1.9141 0.15625z"/>
   <path d="m264.13 388.46h-3.418v-5.293h-14.375v5.293h-3.418v-8.3594h1.4453q1.8555-3.0469 3.0273-7.9492 1.1914-4.9219 1.1914-10.742h13.379v18.691h2.168v8.3594zm-5.8398-8.3594v-15.605h-6.25q-0.2539 4.8828-1.3476 8.9258-1.0742 4.0234-2.7148 6.6797h10.312z"/>
   <path d="m277.23 383.74q-5.2148 0-8.1055-2.9297-2.8711-2.9492-2.8711-8.3594 0-5.332 2.793-8.4766 2.793-3.1641 7.3047-3.1641 2.0312 0 3.5938 0.58594 1.5625 0.58594 2.7344 1.8359t1.7969 3.0664q0.625 1.7969 0.625 4.4141v1.9922h-15.117q0 3.8086 1.9141 5.8203t5.293 2.0117q1.2109 0 2.3633-0.27344 1.1719-0.27344 2.1094-0.70313 0.99609-0.44922 1.6797-0.85937 0.68359-0.42969 1.1328-0.80078h0.21484v4.0039q-0.64453 0.25391-1.6016 0.64453-0.95703 0.3711-1.7188 0.58594-1.0742 0.29297-1.9531 0.44922-0.85937 0.15625-2.1875 0.15625zm4.3-13.85q-0.0391-1.4844-0.35156-2.5586-0.3125-1.0742-0.89844-1.8164-0.64453-0.82031-1.6602-1.25-0.99609-0.42968-2.4805-0.42968-1.4648 0-2.5 0.44922-1.0156 0.42968-1.8555 1.2695-0.82032 0.85937-1.25 1.9141-0.42969 1.0352-0.54688 2.4219h11.543z"/>
   <path d="m305.75 383.23h-3.6719v-18.73h-7.5q-0.0586 1.6211-0.11718 3.125-0.0586 1.4844-0.11719 2.6953-0.11719 3.0664-0.41016 5.1367-0.27343 2.0703-0.70312 3.3203-0.42969 1.2891-0.95703 2.0117-0.50782 0.72266-1.1524 1.3086-0.66406 0.58593-1.4258 0.8789-0.76172 0.29297-1.7188 0.29297-0.3125 0-0.80078-0.0195t-0.68359-0.0195v-3.2031h0.19531q0.13672 0 0.27344 0.0195 0.15625 0.0195 0.35156 0.0195 0.46875 0 0.91797-0.13672t0.80078-0.50782q0.97656-0.95703 1.4258-3.3398 0.44922-2.4023 0.64453-6.6992 0.0781-1.6016 0.13672-3.7891 0.0781-2.1875 0.13672-4.1797h14.375v21.816z"/>
   <path d="m323.23 377.86v-6.0547q-1.3086 0.11718-3.3203 0.33203-1.9922 0.19531-3.2227 0.5664-1.4648 0.44922-2.4219 1.3867-0.95703 0.91797-0.95703 2.5781 0 1.875 1.0547 2.832 1.0547 0.95703 3.0859 0.95703 1.7383 0 3.1445-0.74219 1.4062-0.76172 2.6367-1.8555zm0 3.0469q-0.44922 0.33203-1.2109 0.9375-0.74219 0.58594-1.4453 0.9375-0.97656 0.50781-1.8945 0.78125-0.89844 0.27344-2.5391 0.27344-1.3476 0-2.5586-0.50782-1.2109-0.50781-2.1289-1.4258-0.8789-0.89843-1.4062-2.207-0.52734-1.3281-0.52734-2.793 0-2.2656 0.95703-3.8476 0.95703-1.6016 3.0274-2.5391 1.8359-0.83984 4.3359-1.1523 2.5-0.33203 5.3906-0.48828v-0.70313q0-1.2891-0.39063-2.0703-0.39062-0.80078-1.0938-1.2305-0.70312-0.44922-1.7188-0.58593-1.0156-0.15625-2.0898-0.15625-1.2695 0-2.9883 0.39062-1.7188 0.37109-3.4375 1.0938h-0.21485v-3.7305q1.0156-0.29297 2.9102-0.64453 1.8945-0.35156 3.75-0.35156 2.2461 0 3.7891 0.35156t2.7734 1.2695q1.1914 0.89844 1.7773 2.3242 0.58594 1.4258 0.58594 3.4766v14.922h-3.6523v-2.3242z"/>
   <path d="m349.21 383.23h-3.6719v-9.8242h-9.8828v9.8242h-3.6719v-21.816h3.6719v8.8281h9.8828v-8.8281h3.6719v21.816z"/>
   <path d="m372.51 372.33q0 5.5078-2.6562 8.5156-2.6562 2.9883-7.0703 2.9883-4.5508 0-7.168-3.0859-2.5977-3.1055-2.5977-8.418 0-5.4688 2.6758-8.4961 2.6953-3.0274 7.0898-3.0274 4.4141 0 7.0703 3.0274 2.6562 3.0078 2.6562 8.4961zm-3.7891 0q0-4.2383-1.543-6.2891-1.543-2.0703-4.3945-2.0703-2.8711 0-4.4336 2.0703-1.543 2.0508-1.543 6.2891 0 4.1016 1.543 6.2305 1.5625 2.1094 4.4336 2.1094 2.832 0 4.375-2.0703 1.5625-2.0898 1.5625-6.2695z"/>
  </g>
  <g fill="#f00">
   <path d="m256.01 417.15v-11.836h3.5938v30.391h-3.5938v-3.2812q-1.1328 1.9531-2.8711 2.9102-1.7188 0.9375-4.1406 0.9375-3.9648 0-6.4648-3.1641-2.4805-3.1641-2.4805-8.3203t2.4805-8.3203q2.5-3.1641 6.4648-3.1641 2.4219 0 4.1406 0.95703 1.7383 0.9375 2.8711 2.8906zm-12.246 7.6367q0 3.9648 1.6211 6.2305 1.6406 2.2461 4.4922 2.2461t4.4922-2.2461q1.6406-2.2656 1.6406-6.2305 0-3.9648-1.6406-6.2109-1.6406-2.2656-4.4922-2.2656t-4.4922 2.2656q-1.6211 2.2461-1.6211 6.2109z"/>
   <path d="m285.72 423.87v1.7578h-16.523q0.23437 3.7109 2.2266 5.6641 2.0117 1.9336 5.5859 1.9336 2.0703 0 4.0039-0.50781 1.9531-0.50782 3.8672-1.5234v3.3984q-1.9336 0.82031-3.9648 1.25-2.0312 0.42968-4.1211 0.42968-5.2344 0-8.3008-3.0469-3.0469-3.0469-3.0469-8.2422 0-5.3711 2.8906-8.5156 2.9102-3.1641 7.832-3.1641 4.4141 0 6.9727 2.8516 2.5781 2.832 2.5781 7.7148zm-3.5938-1.0547q-0.0391-2.9492-1.6602-4.707-1.6016-1.7578-4.2578-1.7578-3.0078 0-4.8242 1.6992-1.7969 1.6992-2.0703 4.7852l12.812-0.0195z"/>
   <path d="m288.96 413.83h3.8086l6.8359 18.359 6.8359-18.359h3.8086l-8.2031 21.875h-4.8828l-8.2031-21.875z"/>
   <path d="m315.21 405.32h3.5938v30.391h-3.5938v-30.391z"/>
   <path d="m336.25 424.71q-4.3555 0-6.0352 0.9961-1.6797 0.99609-1.6797 3.3984 0 1.9141 1.25 3.0469 1.2695 1.1133 3.4375 1.1133 2.9883 0 4.7852-2.1094 1.8164-2.1289 1.8164-5.6445v-0.80078h-3.5742zm7.168-1.4844v12.48h-3.5938v-3.3203q-1.2305 1.9922-3.0664 2.9492-1.8359 0.9375-4.4922 0.9375-3.3594 0-5.3516-1.875-1.9726-1.8945-1.9726-5.0586 0-3.6914 2.4609-5.5664 2.4805-1.875 7.3828-1.875h5.0391v-0.35156q0-2.4805-1.6406-3.8281-1.6211-1.3672-4.5703-1.3672-1.875 0-3.6523 0.44922-1.7774 0.44922-3.418 1.3476v-3.3203q1.9726-0.76172 3.8281-1.1328 1.8555-0.39063 3.6133-0.39063 4.7461 0 7.0898 2.4609 2.3438 2.4609 2.3438 7.4609z"/>
   <path d="m366.62 424.79q0-3.9648-1.6406-6.2109-1.6211-2.2656-4.4727-2.2656t-4.4922 2.2656q-1.6211 2.2461-1.6211 6.2109t1.6211 6.2305q1.6406 2.2461 4.4922 2.2461t4.4727-2.2461q1.6406-2.2656 1.6406-6.2305zm-12.227-7.6367q1.1328-1.9531 2.8516-2.8906 1.7383-0.95703 4.1406-0.95703 3.9844 0 6.4648 3.1641 2.5 3.1641 2.5 8.3203t-2.5 8.3203q-2.4805 3.1641-6.4648 3.1641-2.4024 0-4.1406-0.9375-1.7188-0.95703-2.8516-2.9102v3.2812h-3.6133v-30.391h3.6133v11.836z"/>
   <path d="m376.81 430.74h4.1211v4.9609h-4.1211v-4.9609z"/>
  </g>
 </g>
</svg>
